<?xml version="1.0" encoding="UTF-8" standalone="no"?>
<!DOCTYPE svg PUBLIC "-//W3C//DTD SVG 1.0//EN" "http://www.w3.org/TR/2001/PR-SVG-20010719/DTD/svg10.dtd">
<svg width="27cm" height="10cm" viewBox="-1 -1 521 199" xmlns="http://www.w3.org/2000/svg" xmlns:xlink="http://www.w3.org/1999/xlink">
  <line style="fill: none; fill-opacity:0; stroke-width: 1; stroke: #ffffff" x1="0" y1="0" x2="520" y2="0"/>
  <g>
    <rect style="fill: #ffffff" x="300" y="160" width="80" height="36.002" rx="10" ry="10"/>
    <rect style="fill: none; fill-opacity:0; stroke-width: 2; stroke: #000000" x="300" y="160" width="80" height="36.002" rx="10" ry="10"/>
    <text font-size="12.8016" style="fill: #000000;text-anchor:middle;font-family:sans-serif;font-style:normal;font-weight:normal" x="340" y="181.9">
      <tspan x="340" y="181.9">Ceygen</tspan>
    </text>
  </g>
  <g>
    <rect style="fill: #ffffff" x="220" y="80" width="80" height="36" rx="10" ry="10"/>
    <rect style="fill: none; fill-opacity:0; stroke-width: 2; stroke: #000000" x="220" y="80" width="80" height="36" rx="10" ry="10"/>
    <text font-size="12.8" style="fill: #000000;text-anchor:middle;font-family:sans-serif;font-style:normal;font-weight:normal" x="260" y="101.9">
      <tspan x="260" y="101.9">PyBayes</tspan>
    </text>
  </g>
  <g>
    <rect style="fill: #ffffff" x="120" y="0" width="80" height="36" rx="10" ry="10"/>
    <rect style="fill: none; fill-opacity:0; stroke-width: 2; stroke: #000000" x="120" y="0" width="80" height="36" rx="10" ry="10"/>
    <text font-size="12.8" style="fill: #000000;text-anchor:middle;font-family:sans-serif;font-style:normal;font-weight:normal" x="160" y="21.9">
      <tspan x="160" y="21.9">Asim</tspan>
    </text>
  </g>
  <g>
    <polyline style="fill: none; fill-opacity:0; stroke-width: 2; stroke-dasharray: 8; stroke: #000000" points="160,36 160,36 160,178.001 293.295,178.001 "/>
    <polyline style="fill: none; fill-opacity:0; stroke-width: 2; stroke: #000000" points="280.647,183.001 296.647,178.001 280.647,173.001 "/>
  </g>
  <g>
    <polyline style="fill: none; fill-opacity:0; stroke-width: 2; stroke-dasharray: 8; stroke: #000000" points="160,36 160,36 160,98 212.474,98 "/>
    <polyline style="fill: none; fill-opacity:0; stroke-width: 2; stroke: #000000" points="199.827,103 215.827,98 199.827,93 "/>
  </g>
  <text font-size="12.7998" style="fill: #000000;text-anchor:start;font-family:sans-serif;font-style:normal;font-weight:normal" x="0" y="180">
    <tspan x="0" y="180">general</tspan>
  </text>
  <text font-size="12.7998" style="fill: #000000;text-anchor:start;font-family:sans-serif;font-style:normal;font-weight:normal" x="0" y="100">
    <tspan x="0" y="100">topical</tspan>
  </text>
  <text font-size="12.7998" style="fill: #000000;text-anchor:start;font-family:sans-serif;font-style:normal;font-weight:normal" x="0" y="20">
    <tspan x="0" y="20">problem-specific</tspan>
  </text>
  <text font-size="12.7998" style="fill: #000000;text-anchor:start;font-family:sans-serif;font-style:normal;font-weight:normal" x="400" y="20">
    <tspan x="400" y="20">dispersion model</tspan>
    <tspan x="400" y="36">assimilation</tspan>
  </text>
  <text font-size="12.7998" style="fill: #000000;text-anchor:start;font-family:sans-serif;font-style:normal;font-weight:normal" x="400" y="100">
    <tspan x="400" y="100">Bayesian filtering</tspan>
  </text>
  <text font-size="12.7998" style="fill: #000000;text-anchor:start;font-family:sans-serif;font-style:normal;font-weight:normal" x="400" y="180">
    <tspan x="400" y="180">linear algebra</tspan>
  </text>
  <line style="fill: none; fill-opacity:0; stroke-width: 1; stroke-dasharray: 4; stroke: #000000" x1="40" y1="60" x2="480" y2="60"/>
  <text font-size="12.7998" style="fill: #000000;text-anchor:start;font-family:sans-serif;font-style:normal;font-weight:normal" x="300" y="30">
    <tspan x="300" y="30">closed</tspan>
  </text>
  <text font-size="12.7998" style="fill: #000000;text-anchor:start;font-family:sans-serif;font-style:normal;font-weight:normal" x="280" y="140">
    <tspan x="280" y="140">open-source</tspan>
  </text>
  <g>
    <line style="fill: none; fill-opacity:0; stroke-width: 1; stroke: #000000" x1="320" y1="48.618" x2="320" y2="111.382"/>
    <polygon style="fill: #000000" points="320,41.118 325,51.118 320,48.618 315,51.118 "/>
    <polygon style="fill: none; fill-opacity:0; stroke-width: 1; stroke: #000000" points="320,41.118 325,51.118 320,48.618 315,51.118 "/>
    <polygon style="fill: #000000" points="320,118.882 315,108.882 320,111.382 325,108.882 "/>
    <polygon style="fill: none; fill-opacity:0; stroke-width: 1; stroke: #000000" points="320,118.882 315,108.882 320,111.382 325,108.882 "/>
  </g>
  <g>
    <polyline style="fill: none; fill-opacity:0; stroke-width: 2; stroke-dasharray: 8; stroke: #000000" points="260,116 260,116 260,178.001 293.295,178.001 "/>
    <polyline style="fill: none; fill-opacity:0; stroke-width: 2; stroke: #000000" points="280.647,183.001 296.647,178.001 280.647,173.001 "/>
  </g>
</svg>
